<svg t="1728659231066" class="icon" viewBox="0 0 1024 1024" version="1.1" xmlns="http://www.w3.org/2000/svg" p-id="7433" width="200" height="200"><path d="M444.02688 847.40096a39.26016 39.26016 0 0 1-37.90848-29.12256L340.43904 573.0304l-25.94816 82.5344a39.3216 39.3216 0 0 1-65.51552 15.74912l-88.71936-90.46016H70.00064a39.28064 39.28064 0 0 1 0-78.60224h106.78272c10.52672 0 20.66432 4.25984 28.03712 11.79648l54.35392 55.43936 46.73536-148.91008a39.3216 39.3216 0 0 1 37.4784-27.48416h0.83968a39.26016 39.26016 0 0 1 37.13024 29.12256l51.93728 193.88416 61.29664-406.09792a39.26016 39.26016 0 0 1 37.13024-33.36192 39.936 39.936 0 0 1 39.89504 30.06464l72.82688 302.67392 51.13856-171.45856a39.28064 39.28064 0 0 1 32.84992-27.7504 39.60832 39.60832 0 0 1 38.6048 18.98496l102.6048 173.11744h84.33664a39.30112 39.30112 0 0 1 0 78.60224h-106.76224a39.26016 39.26016 0 0 1-33.792-19.27168l-68.1984-115.13856-67.1744 225.19808c-5.05856 17.03936-20.35712 29.26592-38.68672 28.03712a39.2192 39.2192 0 0 1-37.15072-30.08512l-59.92448-249.05728-59.37152 393.44128a39.3216 39.3216 0 0 1-38.89152 33.40288z" fill="currentColor" p-id="7434"></path></svg>