<svg t="1728242701054" class="icon" viewBox="0 0 1024 1024" version="1.1" xmlns="http://www.w3.org/2000/svg" p-id="980" width="200" height="200"><path d="M486.4 767.6416c-126.8224 0-230.0416-103.168-230.0416-230.0416s103.168-230.0416 230.0416-230.0416 230.0416 103.168 230.0416 230.0416-103.168 230.0416-230.0416 230.0416zM486.4 358.7584c-98.6112 0-178.8416 80.2304-178.8416 178.8416s80.2304 178.8416 178.8416 178.8416 178.8416-80.2304 178.8416-178.8416-80.2304-178.8416-178.8416-178.8416z" fill="#000000" p-id="981"></path><path d="M486.4 256c-14.1312 0-25.6-11.4688-25.6-25.6l0-153.6c0-14.1312 11.4688-25.6 25.6-25.6s25.6 11.4688 25.6 25.6l0 153.6c0 14.1312-11.4688 25.6-25.6 25.6z" fill="#000000" p-id="982"></path><path d="M486.4 1024c-14.1312 0-25.6-11.4688-25.6-25.6l0-153.6c0-14.1312 11.4688-25.6 25.6-25.6s25.6 11.4688 25.6 25.6l0 153.6c0 14.1312-11.4688 25.6-25.6 25.6z" fill="#000000" p-id="983"></path><path d="M179.2 563.2l-153.6 0c-14.1312 0-25.6-11.4688-25.6-25.6s11.4688-25.6 25.6-25.6l153.6 0c14.1312 0 25.6 11.4688 25.6 25.6s-11.4688 25.6-25.6 25.6z" fill="#000000" p-id="984"></path><path d="M947.2 563.2l-153.6 0c-14.1312 0-25.6-11.4688-25.6-25.6s11.4688-25.6 25.6-25.6l153.6 0c14.1312 0 25.6 11.4688 25.6 25.6s-11.4688 25.6-25.6 25.6z" fill="#000000" p-id="985"></path><path d="M230.4 307.2c-6.5536 0-13.1072-2.5088-18.1248-7.4752l-102.4-102.4c-9.984-9.984-9.984-26.2144 0-36.1984s26.2144-9.984 36.1984 0l102.4 102.4c9.984 9.984 9.984 26.2144 0 36.1984-5.0176 5.0176-11.5712 7.4752-18.1248 7.4752z" fill="#000000" p-id="986"></path><path d="M128 921.6c-6.5536 0-13.1072-2.5088-18.1248-7.4752-9.984-9.984-9.984-26.2144 0-36.1984l102.4-102.4c9.984-9.984 26.2144-9.984 36.1984 0s9.984 26.2144 0 36.1984l-102.4 102.4c-5.0176 5.0176-11.5712 7.4752-18.1248 7.4752z" fill="#000000" p-id="987"></path><path d="M844.8 921.6c-6.5536 0-13.1072-2.5088-18.1248-7.4752l-102.4-102.4c-9.984-9.984-9.984-26.2144 0-36.1984s26.2144-9.984 36.1984 0l102.4 102.4c9.984 9.984 9.984 26.2144 0 36.1984-5.0176 5.0176-11.5712 7.4752-18.1248 7.4752z" fill="#000000" p-id="988"></path><path d="M742.4 307.2c-6.5536 0-13.1072-2.5088-18.1248-7.4752-9.984-9.984-9.984-26.2144 0-36.1984l102.4-102.4c9.984-9.984 26.2144-9.984 36.1984 0s9.984 26.2144 0 36.1984l-102.4 102.4c-5.0176 5.0176-11.5712 7.4752-18.1248 7.4752z" fill="#000000" p-id="989"></path></svg>